<?xml version="1.0" encoding="UTF-8"?>
<svg id="Layer_1" xmlns="http://www.w3.org/2000/svg" version="1.1" xmlns:xlink="http://www.w3.org/1999/xlink" viewBox="0 0 500 175">
  <!-- Generator: Adobe Illustrator 29.3.1, SVG Export Plug-In . SVG Version: 2.1.0 Build 151)  -->
  <defs>
    <style>
      .st0 {
        fill: #286291;
      }

      .st1 {
        fill: #1fff4b;
      }

      .st2 {
        fill: #f40006;
      }
    </style>
  </defs>
  <path class="st0" d="M82.6,0s40.2,103.6-49,148.9c29.5-2.8,82.9-41.7,111.9-27.3,0,0,4-61.8-62.9-121.5"/>
  <path class="st0" d="M70.6,25.7s21.3,78.7-57.7,123.2c0,0,94.1-23.5,57.7-123.2"/>
  <path class="st1" d="M1.4,150.7c2.1,1.4,4.3,2.6,6.6,3.8,17.3,8.7,37.3,9.5,56.2,6.4,20.6-3.4,39.1-12.8,58.6-19.8,14.1-5.1,29.9-7.7,43.7-.3-16.8-15.8-45.2-12.5-64.7-5.3-19.3,7.1-37.2,16.3-57.9,18.9-13.1,1.6-27.3,1.5-40-2.9-.8-.3-1.7-.6-2.5-.9"/>
  <path class="st2" d="M155.6,100.1v21.5h-7.9v-34.7h7.9l13.8,21.5h0v-21.5h7.9v34.7h-7.9l-13.8-21.5h0Z"/>
  <path class="st2" d="M181.8,88.7c.9-.9,1.9-1.3,3.1-1.3s2.2.4,3.1,1.3c.9.9,1.3,1.9,1.3,3.1s-.4,2.3-1.3,3.1c-.9.9-1.9,1.3-3.1,1.3s-2.3-.4-3.1-1.3c-.9-.9-1.3-1.9-1.3-3.1s.4-2.2,1.3-3.1ZM181.1,100.7v21.6h7.5v-21.6h-7.5Z"/>
  <path class="st2" d="M203.7,106.2c-1.4,0-2.6.5-3.6,1.6-1,1-1.5,2.3-1.5,3.7s.5,2.8,1.5,3.8,2.2,1.6,3.6,1.6,1.3,0,1.9-.3c.6-.2,1.1-.4,1.3-.5l.4-.3,2.5,5.2c-.2.2-.5.3-.8.5s-1.1.5-2.4.9c-1.2.4-2.6.5-4,.5-3.2,0-6-1.1-8.4-3.3-2.4-2.2-3.6-4.9-3.6-8s1.2-5.8,3.6-8.1c2.4-2.3,5.2-3.4,8.4-3.4s2.7.2,3.9.5,2.1.7,2.6,1l.7.5-2.5,5.1c-.9-.7-2.1-1-3.6-1h0Z"/>
  <path class="st2" d="M231.3,87.6v6.9h-12.1v6.9h11.2v6.9h-11.2v13.9h-7.9v-34.7h20.1-.1Z"/>
  <path class="st2" d="M233.4,122.3v-21.6h7.5v3.1h0s.1-.3.3-.4c.1-.2.4-.5.8-.9s.9-.8,1.3-1.1c.5-.3,1.1-.7,1.9-.9.8-.3,1.5-.4,2.3-.4s1.6,0,2.4.3c.8.2,1.4.4,1.7.7l.6.4-3.1,6.3c-.9-.8-2.2-1.2-3.9-1.2s-1.7.2-2.3.6-1.1.9-1.4,1.4c-.3.6-.5,1-.6,1.4s-.2.7-.2.9v11.4h-7.5s.2,0,.2,0Z"/>
  <path class="st2" d="M254.2,119.6c-2-2.2-3-4.9-3-8.1s1-5.9,3-8.1c2-2.2,4.6-3.3,7.7-3.3s5.2.9,7.1,2.7v-2.1h7.5v21.6h-7.4v-2.4h-.1c-1.8,2-4.2,3.1-7.1,3.1s-5.7-1.1-7.7-3.3h0ZM260.5,107.9c-1,.9-1.4,2.2-1.4,3.6s.5,2.7,1.4,3.6,2.2,1.4,3.7,1.4,2.7-.5,3.6-1.4c.9-1,1.4-2.2,1.4-3.6s-.5-2.7-1.5-3.6c-1-1-2.2-1.4-3.6-1.4s-2.6.5-3.6,1.4Z"/>
  <path class="st2" d="M277.3,121.7v-21.6h7.5v2.3h0c1.9-1.9,4-2.9,6.2-2.9s2.1,0,3.2.4,2.1.7,3,1.3c1,.6,1.8,1.4,2.4,2.5s.9,2.3.9,3.8v14.2h-7.5v-12.2c0-1.1-.4-2.1-1.1-2.9s-1.6-1.3-2.8-1.3-2.1.4-3,1.3-1.4,1.8-1.4,2.9v12.2h-7.5,0Z"/>
</svg>